<svg width="30" height="30" viewBox="0 0 30 30" fill="none" xmlns="http://www.w3.org/2000/svg">
<path fill-rule="evenodd" clip-rule="evenodd" d="M25.5 16.5H21C18.5145 16.5 16.5 18.5145 16.5 21V25.5C16.5 27.9855 18.5145 30 21 30H25.5C27.9855 30 30 27.9855 30 25.5V21C30 18.5145 27.9855 16.5 25.5 16.5ZM9 16.5H4.5C2.0145 16.5 0 18.5145 0 21V25.5C0 27.9855 2.0145 30 4.5 30H9C11.4855 30 13.5 27.9855 13.5 25.5V21C13.5 18.5145 11.4855 16.5 9 16.5ZM25.5 0H21C18.5145 0 16.5 2.0145 16.5 4.5V9C16.5 11.4855 18.5145 13.5 21 13.5H25.5C27.9855 13.5 30 11.4855 30 9V4.5C30 2.0145 27.9855 0 25.5 0ZM13.5 4.5V9C13.5 11.4855 11.4855 13.5 9 13.5H4.5C2.0145 13.5 0 11.4855 0 9V4.5C0 2.0145 2.0145 0 4.5 0H9C11.4855 0 13.5 2.0145 13.5 4.5Z" fill="#E4E6EB"/>
</svg>
