<svg width="30" height="30" viewBox="0 0 30 30" fill="none" xmlns="http://www.w3.org/2000/svg">
<g clip-path="url(#clip0)">
<path d="M19.3326 26.6211C19.237 27.0947 19.0691 27.5293 18.8262 27.9272C18.5756 28.3349 18.2474 28.7036 17.8444 29.0259C17.4387 29.3481 16.9995 29.5923 16.5215 29.7558C16.0435 29.9194 15.5371 30 15.0022 30C14.4648 30 13.9584 29.917 13.483 29.7558C13.0076 29.5923 12.5658 29.3506 12.1627 29.0259C11.757 28.7012 11.4315 28.3349 11.1809 27.9272C10.9302 27.5195 10.7597 27.0703 10.6667 26.5771C10.6202 26.3379 10.7907 26.1084 11.0439 26.0644C11.0517 26.0644 11.1266 26.0571 11.1266 26.0571H18.883C19.1414 26.0571 19.3533 26.2549 19.3533 26.5015C19.3507 26.543 19.343 26.582 19.3326 26.6211ZM5.22272 0.0610199C5.69555 -0.117203 6.23039 0.102524 6.419 0.549301C6.60761 0.996079 6.37508 1.50145 5.90225 1.67967C4.87908 2.06541 4.02127 2.60008 3.33658 3.29344C2.65447 3.9868 2.1403 4.84618 1.80441 5.87889C1.65455 6.33788 1.1378 6.59666 0.652054 6.45506C0.166308 6.31346 -0.10757 5.82518 0.0422874 5.3662C0.46344 4.07225 1.11455 2.98827 1.98527 2.10448C2.856 1.22313 3.93859 0.544418 5.22272 0.0610199ZM24.0996 1.67967C23.6268 1.50145 23.3943 0.996079 23.5829 0.549301C23.7715 0.102524 24.3063 -0.117203 24.7792 0.0610199C26.0633 0.544418 27.1459 1.22313 28.0166 2.10692C28.8874 2.99315 29.541 4.07713 29.9596 5.36864C30.1095 5.82762 29.8356 6.3159 29.3498 6.4575C28.8641 6.59911 28.3473 6.34032 28.1975 5.88133C27.8616 4.84618 27.3474 3.9868 26.6653 3.29588C25.9806 2.60008 25.1228 2.06541 24.0996 1.67967ZM18.5807 2.91502C19.1078 3.11278 19.6142 3.34959 20.1 3.62547C20.1181 3.63768 20.1387 3.64745 20.1568 3.65965C20.6219 3.93065 21.056 4.2285 21.4539 4.55077C22.3039 5.24168 23.0119 6.05223 23.5726 6.9702C23.8516 7.42918 24.0919 7.9077 24.2908 8.40086C24.495 8.91112 24.6474 9.43114 24.7508 9.96581C24.8515 10.5029 24.9032 11.0522 24.9032 11.6162C24.9032 12.7295 24.9032 13.3325 24.9032 13.4057C24.9058 13.977 24.9084 14.5361 24.9135 15.0806V15.0854C24.9161 15.5786 24.9497 16.0742 25.0143 16.5698C25.0789 17.0605 25.1719 17.5342 25.2933 17.9907C25.4148 18.4399 25.5801 18.8745 25.7843 19.2895C25.9961 19.7168 26.2545 20.1367 26.5568 20.5444H26.5594C26.8591 20.9448 27.2337 21.3428 27.6833 21.7334C28.1484 22.1362 28.6858 22.5342 29.3008 22.9199C29.6521 23.1421 29.7477 23.5937 29.51 23.9258C29.3628 24.1333 29.1199 24.248 28.8718 24.248V24.2505H21.9345H15.0022H8.06485H1.13005C0.703729 24.2505 0.36009 23.9258 0.36009 23.5229C0.36009 23.2593 0.509947 23.0273 0.732151 22.9004C1.35484 22.5024 1.88967 22.1069 2.33666 21.7163C2.78107 21.3281 3.15313 20.9302 3.45285 20.52C3.4606 20.5078 3.47093 20.4956 3.48127 20.4858C3.77065 20.0854 4.01869 19.6777 4.22281 19.2627C4.43209 18.8403 4.60003 18.4057 4.72406 17.959C4.72664 17.9492 4.72922 17.9394 4.73181 17.9321C4.85066 17.4975 4.94109 17.0386 5.0031 16.5576C5.06511 16.0742 5.0987 15.5737 5.0987 15.0586V11.6162C5.0987 11.062 5.15037 10.5127 5.25631 9.96336C5.36224 9.41649 5.51468 8.89159 5.7188 8.3911C5.92033 7.89061 6.16321 7.40965 6.44484 6.95067C7.01326 6.02293 7.71863 5.21971 8.5816 4.52391C9.00276 4.18456 9.4575 3.8745 9.94583 3.59862C10.4393 3.3203 10.9509 3.08592 11.478 2.89549C11.8449 2.76366 12.2247 2.65379 12.6123 2.56346C12.744 2.12645 12.9714 1.77245 13.2944 1.50145C13.7388 1.12791 14.3227 0.942368 15.0487 0.949692C15.767 0.954575 16.3484 1.14256 16.7876 1.5161C18.3405 2.82225 16.4078 2.10448 18.5807 2.91502Z" fill="#E4E6EB"/>
</g>
<defs>
<clipPath id="clip0">
<rect width="30" height="30" fill="white"/>
</clipPath>
</defs>
</svg>
