<svg width="60" height="64" viewBox="0 0 60 64" fill="none" xmlns="http://www.w3.org/2000/svg">
<path d="M42.208 30.356C42.7193 30.356 43.152 30.533 43.506 30.887C43.8993 31.241 44.096 31.6737 44.096 32.185C44.096 32.6963 43.919 33.1487 43.565 33.542C43.211 33.896 42.7587 34.073 42.208 34.073H31.529V44.693C31.529 45.2437 31.352 45.696 30.998 46.05C30.644 46.404 30.2113 46.581 29.7 46.581C29.1887 46.581 28.756 46.404 28.402 46.05C28.048 45.6567 27.871 45.2043 27.871 44.693V34.073H17.192C16.6807 34.073 16.2283 33.896 15.835 33.542C15.481 33.1487 15.304 32.6963 15.304 32.185C15.304 31.6737 15.481 31.241 15.835 30.887C16.2283 30.533 16.6807 30.356 17.192 30.356H27.871V19.736C27.871 19.1853 28.048 18.733 28.402 18.379C28.756 17.9857 29.1887 17.789 29.7 17.789C30.2113 17.789 30.644 17.9857 30.998 18.379C31.352 18.733 31.529 19.1853 31.529 19.736V30.356H42.208Z" fill="white"/>
</svg>
